#!OML:ASF F:\VICON\USERDATA\INSTALL\rory3\rory3.ASF
:FULLY-SPECIFIED
:DEGREES
1
root -0.9195410000000013 17.2067 -32.306200000000025 6.010089999999996 -2.1114799999999985 -6.517110000000002
lfemur -25.867800000000024 7.189150000000016 -10.752499999999992
ltibia 104.04899999999995
lfoot 7.526899999999988 -13.7874
ltoes 0.37513500000001976
rfemur -22.146599999999992 3.958689999999997 34.871500000000005
rtibia 48.917799999999986
rfoot -22.27260000000003 -18.484600000000025
rtoes -5.583340000000013
lowerback nan 0.36202799999999935 3.175500000000002
upperback 0.4907119999999987 1.4043400000000001 3.113600000000001
thorax -9.2274 0.6066180000000001 1.2207300000000005
lowerneck -21.8599 -3.158839999999999 -1.3040799999999997
upperneck 12.282200000000001 -4.181430000000001 1.7646099999999987
head 7.3884799999999995 -1.8849399999999996 0.2728319999999994
lclavicle 6.460499999999994e-16 -1.789059999999998e-15
lhumerus -52.4405 -11.167900000000007 98.1635
lradius 97.59629999999997
lwrist 29.294700000000006
lhand -25.8077 2.8378000000000005
lfingers nan
lthumb 0.7315109999999994 32.8163
rclavicle 6.460499999999994e-16 -1.789059999999998e-15
rhumerus -37.915499999999994 10.290999999999999 -93.6859
rradius 101.158
rwrist -7.893619999999997
rhand -21.343200000000003 nan
rfingers nan
rthumb 5.042970000000008 9.8436
2
root -0.9273160000000011 17.2609 -31.822299999999984 5.805149999999999 -1.2205899999999972 -6.500639999999997
lfemur -28.45869999999998 6.779430000000008 -10.861100000000002
ltibia 103.971
lfoot 7.381920000000009 -13.072799999999999
ltoes 4.874380000000002
rfemur -19.7939 3.31426 34.948600000000006
rtibia 48.06119999999997
rfoot -22.00069999999997 -18.7096
rtoes -7.771190000000009
lowerback nan 0.3047779999999991 3.1680800000000007
upperback 0.15001599999999926 1.3754700000000002 3.31606
thorax -9.70876 0.5937200000000002 1.4562900000000014
lowerneck -20.4894 -3.34881 -1.9078
upperneck 12.189799999999998 -4.298020000000001 1.8544099999999997
head 7.151210000000001 -1.97326 0.4035370000000005
lclavicle -7.653210000000004e-15 -9.939229999999976e-15
lhumerus -54.39589999999999 -10.981000000000005 98.9174
lradius 98.54760000000002
lwrist 29.833899999999996
lhand -26.222099999999998 3.0559100000000003
lfingers nan
lthumb 0.33122799999999764 33.0354
rclavicle -7.653210000000004e-15 -9.939229999999976e-15
rhumerus -38.4064 10.7864 -93.7985
rradius 103.16799999999999
rwrist -9.75467
rhand -22.110100000000003 nan
rfingers nan
rthumb 4.302440000000002 9.35571
3
root -0.9318049999999994 17.3244 -31.3318 5.5719699999999985 -0.48884599999999767 -6.663809999999993
lfemur -30.74170000000003 6.464120000000013 -10.839499999999994
ltibia 103.34599999999989
lfoot 6.358659999999998 -12.346200000000007
ltoes 3.6952499999999926
rfemur -17.293099999999995 2.814780000000003 35.172200000000004
rtibia 47.04810000000002
rfoot -21.217900000000053 -18.620700000000028
rtoes -9.811900000000005
lowerback nan 0.4099569999999994 3.3343899999999955
upperback -0.1061630000000009 1.6017 3.4917099999999985
thorax -10.1928 0.69323 1.4985200000000005
lowerneck -20.1212 -3.60679 -2.10422
upperneck 12.451700000000002 -4.573050000000001 1.6711800000000028
head 7.181699999999999 -2.1335 0.3448560000000006
lclavicle -6.261719999999988e-15 1.1927100000000018e-15
lhumerus -55.903400000000005 -11.191300000000005 99.5954
lradius 99.38170000000001
lwrist 30.605000000000004
lhand -26.3648 3.074179999999999
lfingers nan
lthumb 0.1933859999999994 33.0538
rclavicle -6.261719999999988e-15 1.1927100000000018e-15
rhumerus -38.57429999999998 10.7365 -93.765
rradius 104.98299999999999
rwrist -11.383400000000004
rhand -22.00760000000001 nan
rfingers nan
rthumb 4.401449999999999 10.2259
4
root -0.9356700000000014 17.4049 -30.838700000000088 5.40461 0.06839350000000077 -6.80948
lfemur -32.90550000000001 6.2295900000000035 -10.965500000000006
ltibia 102.32900000000006
lfoot 5.175540000000003 -11.613699999999998
ltoes -0.7664639999999832
rfemur -14.822900000000008 2.5218000000000007 35.31819999999998
rtibia 46.04920000000003
rfoot -20.325499999999963 -18.022299999999998
rtoes -11.478400000000022
lowerback nan 0.6284089999999999 3.6964100000000033
upperback -0.5074519999999992 2.0003800000000003 3.38272
thorax -10.8215 0.8502500000000002 1.0701500000000004
lowerneck -19.407299999999996 -3.8572999999999995 -1.8248099999999996
upperneck 12.5906 -4.96231 1.4157500000000012
head 7.102290000000001 -2.3352300000000006 0.18121599999999943
lclavicle 1.0933200000000018e-15 -1.471009999999999e-14
lhumerus -57.686499999999995 -11.765299999999998 99.9878
lradius 100.17200000000001
lwrist 31.225200000000008
lhand -25.872500000000002 2.9792099999999984
lfingers nan
lthumb 0.6688979999999987 32.9579
rclavicle 1.0933200000000018e-15 -1.471009999999999e-14
rhumerus -39.23949999999998 10.138900000000001 -93.971
rradius 106.985
rwrist -12.046900000000004
rhand -20.69970000000001 nan
rfingers nan
rthumb 5.664259999999995 10.0468
5
root -0.9290819999999994 17.4997 -30.321600000000082 5.2860700000000005 0.2593829999999996 -7.012290000000004
lfemur -34.54020000000003 6.248969999999995 -11.123299999999993
ltibia 100.77000000000005
lfoot 4.13552 -10.75810000000001
ltoes -2.955949999999997
rfemur -12.361500000000012 2.6397600000000003 35.46560000000001
rtibia 44.98459999999997
rfoot -19.0169 -17.16920000000001
rtoes -13.72459999999997
lowerback nan 0.9455080000000001 4.187220000000005
upperback -0.8950729999999998 2.52455 3.2287999999999983
thorax -11.152700000000001 1.0564100000000005 0.4850829999999995
lowerneck -18.114300000000004 -4.074290000000001 -1.7175600000000006
upperneck 12.450899999999999 -5.30124 1.3894200000000017
head 6.84382 -2.5061400000000007 0.14235899999999924
lclavicle -1.1777999999999984e-14 -5.963540000000012e-15
lhumerus -59.622200000000014 -12.210799999999997 100.33
lradius 100.84099999999998
lwrist 31.6437
lhand -25.2105 2.5463799999999996
lfingers nan
lthumb 1.3082300000000004 32.5221
rclavicle -1.1777999999999984e-14 -5.963540000000012e-15
rhumerus -40.0709 9.60331 -94.2449
rradius 109.102
rwrist -12.476099999999995
rhand -20.1736 nan
rfingers nan
rthumb 6.172240000000006 9.94042
6
root -0.9091870000000004 17.6003 -29.77309999999992 5.386560000000001 -0.17410099999999717 -7.101839999999997
lfemur -35.65799999999999 6.753449999999997 -11.578899999999994
ltibia 98.70710000000008
lfoot 1.476690000000004 -9.412850000000006
ltoes -9.189289999999998
rfemur -10.02340000000002 3.194519999999998 35.3307
rtibia 43.850200000000044
rfoot -17.2039 -16.054000000000002
rtoes -16.043099999999956
lowerback nan 1.4112499999999997 4.441680000000003
upperback -0.6648509999999999 3.105349999999998 3.1709300000000016
thorax -10.2888 1.3344799999999986 0.14763399999999927
lowerneck -18.827 -4.282060000000001 -1.97822
upperneck 12.906000000000002 -5.52487 1.4738700000000018
head 7.124219999999999 -2.6092499999999994 0.16583099999999995
lclavicle 4.472660000000003e-15 2.4649300000000026e-14
lhumerus -60.25259999999999 -12.1215 100.41
lradius 101.286
lwrist 31.858899999999995
lhand -25.9661 0.8630449999999996
lfingers nan
lthumb 0.5785280000000026 30.842
rclavicle 4.472660000000003e-15 2.4649300000000026e-14
rhumerus -39.38120000000002 9.861039999999997 -94.1284
rradius 110.504
rwrist -12.825500000000002
rhand -20.667899999999992 nan
rfingers nan
rthumb 5.695039999999995 11.006299999999998
7
root -0.8917090000000009 17.7129 -29.236500000000063 5.439140000000002 -0.24946000000000002 -7.286459999999992
lfemur -36.76319999999997 6.873549999999988 -11.887400000000012
ltibia 96.27430000000003
lfoot -0.9779200000000006 -8.212790000000002
ltoes -14.590399999999995
rfemur -7.817439999999987 3.299730000000004 35.305800000000005
rtibia 42.61139999999998
rfoot -14.86620000000001 -14.669799999999988
rtoes -18.336200000000055
lowerback nan 1.76022 4.831619999999997
upperback -0.6219950000000012 3.5805600000000046 3.108420000000001
thorax -9.75942 1.552210000000001 -0.23176300000000127
lowerneck -18.9189 -4.44186 -1.95078
upperneck 13.1804 -5.74265 1.415609999999997
head 7.230459999999999 -2.7147500000000013 0.11159199999999925
lclavicle 1.9133e-14 3.379339999999992e-14
lhumerus -61.3011 -11.806 100.389
lradius 101.96
lwrist 31.841099999999997
lhand -27.599400000000003 1.6659900000000005
lfingers nan
lthumb -0.9990539999999941 31.6434
rclavicle 1.9133e-14 3.379339999999992e-14
rhumerus -39.096599999999995 10.053099999999999 -94.1854
rradius 111.785
rwrist -12.709000000000007
rhand -20.990399999999994 nan
rfingers nan
rthumb 5.383609999999997 11.037200000000002
